<svg xmlns="http://www.w3.org/2000/svg" version="1.1" xmlns:xlink="http://www.w3.org/1999/xlink" width="1000" height="1000"><metadata><rdf:RDF xmlns:rdf="http://www.w3.org/1999/02/22-rdf-syntax-ns#" xmlns:dc="http://purl.org/dc/elements/1.1/"><rdf:Description><dc:creator>RealFaviconGenerator</dc:creator><dc:source>https://realfavicongenerator.net</dc:source></rdf:Description></rdf:RDF></metadata><g clip-path="url(#SvgjsClipPath1108)"><rect width="1000" height="1000" fill="#ffffff"></rect><g transform="matrix(37.5,0,0,37.5,50,50)"><svg xmlns="http://www.w3.org/2000/svg" width="24" height="24" viewBox="0 0 24 24" fill="none" stroke="currentColor" stroke-width="2" stroke-linecap="round" stroke-linejoin="round" class="lucide lucide-church-icon lucide-church"><path d="M10 9h4"></path><path d="M12 7v5"></path><path d="M14 21v-3a2 2 0 0 0-4 0v3"></path><path d="m18 9 3.52 2.147a1 1 0 0 1 .48.854V19a2 2 0 0 1-2 2H4a2 2 0 0 1-2-2v-6.999a1 1 0 0 1 .48-.854L6 9"></path><path d="M6 21V7a1 1 0 0 1 .376-.782l5-3.999a1 1 0 0 1 1.249.001l5 4A1 1 0 0 1 18 7v14"></path></svg></g></g><defs><clipPath id="SvgjsClipPath1108"><rect width="1000" height="1000" x="0" y="0" rx="200" ry="200"></rect></clipPath></defs></svg>